<?xml version="1.0" encoding="UTF-8" standalone="no"?>
<!-- Created with Inkscape (http://www.inkscape.org/) -->

<svg
   width="50.000019mm"
   height="32.651211mm"
   viewBox="0 0 50.000019 32.651211"
   version="1.1"
   id="svg1"
   inkscape:version="1.3.2 (091e20e, 2023-11-25, custom)"
   sodipodi:docname="LogoPink.svg"
   xml:space="preserve"
   inkscape:export-filename="LogoWhite.png"
   inkscape:export-xdpi="96"
   inkscape:export-ydpi="96"
   xmlns:inkscape="http://www.inkscape.org/namespaces/inkscape"
   xmlns:sodipodi="http://sodipodi.sourceforge.net/DTD/sodipodi-0.dtd"
   xmlns="http://www.w3.org/2000/svg"
   xmlns:svg="http://www.w3.org/2000/svg"><sodipodi:namedview
     id="namedview1"
     pagecolor="#ffffff"
     bordercolor="#000000"
     borderopacity="0.25"
     inkscape:showpageshadow="2"
     inkscape:pageopacity="0.0"
     inkscape:pagecheckerboard="0"
     inkscape:deskcolor="#d1d1d1"
     inkscape:document-units="mm"
     inkscape:zoom="1.4556538"
     inkscape:cx="230.82412"
     inkscape:cy="-21.639762"
     inkscape:window-width="1920"
     inkscape:window-height="1094"
     inkscape:window-x="-11"
     inkscape:window-y="-11"
     inkscape:window-maximized="1"
     inkscape:current-layer="layer1"
     showguides="true"
     showgrid="false" /><defs
     id="defs1"><inkscape:path-effect
       effect="offset"
       id="path-effect16"
       is_visible="true"
       lpeversion="1.2"
       linejoin_type="miter"
       unit="mm"
       offset="0.5"
       miter_limit="4"
       attempt_force_join="false"
       update_on_knot_move="true" /><inkscape:path-effect
       effect="offset"
       id="path-effect14"
       is_visible="true"
       lpeversion="1.2"
       linejoin_type="miter"
       unit="mm"
       offset="0.5"
       miter_limit="4"
       attempt_force_join="false"
       update_on_knot_move="true" /><inkscape:path-effect
       effect="offset"
       id="path-effect13"
       is_visible="true"
       lpeversion="1.2"
       linejoin_type="miter"
       unit="mm"
       offset="0.5"
       miter_limit="4"
       attempt_force_join="false"
       update_on_knot_move="true" /><inkscape:path-effect
       effect="offset"
       id="path-effect11"
       is_visible="true"
       lpeversion="1.2"
       linejoin_type="miter"
       unit="mm"
       offset="0"
       miter_limit="4"
       attempt_force_join="false"
       update_on_knot_move="true" /><inkscape:path-effect
       effect="offset"
       id="path-effect10"
       is_visible="true"
       lpeversion="1.2"
       linejoin_type="miter"
       unit="mm"
       offset="0.6"
       miter_limit="4"
       attempt_force_join="false"
       update_on_knot_move="true" /><inkscape:path-effect
       effect="offset"
       id="path-effect8"
       is_visible="true"
       lpeversion="1.2"
       linejoin_type="miter"
       unit="mm"
       offset="0"
       miter_limit="4"
       attempt_force_join="false"
       update_on_knot_move="true" /><inkscape:path-effect
       effect="perspective-envelope"
       up_left_point="119.65726,24.933952"
       up_right_point="129.28709,27.640005"
       down_left_point="119.65726,39.071762"
       down_right_point="129.28709,36.365709"
       id="path-effect7"
       is_visible="true"
       lpeversion="1"
       deform_type="perspective"
       horizontal_mirror="true"
       vertical_mirror="false"
       overflow_perspective="false" /><inkscape:path-effect
       effect="perspective-envelope"
       up_left_point="119.65726,24.933952"
       up_right_point="129.28709,27.640005"
       down_left_point="119.65726,39.071762"
       down_right_point="129.28709,36.365709"
       id="path-effect7-8"
       is_visible="true"
       lpeversion="1"
       deform_type="perspective"
       horizontal_mirror="true"
       vertical_mirror="false"
       overflow_perspective="false" /><inkscape:path-effect
       effect="offset"
       id="path-effect8-1"
       is_visible="true"
       lpeversion="1.2"
       linejoin_type="miter"
       unit="mm"
       offset="0"
       miter_limit="4"
       attempt_force_join="false"
       update_on_knot_move="true" /></defs><g
     inkscape:label="Layer 1"
     inkscape:groupmode="layer"
     id="layer1"
     transform="translate(-133.16805,-139.04066)"><text
       xml:space="preserve"
       style="font-style:normal;font-variant:normal;font-weight:normal;font-stretch:normal;font-size:25.4px;font-family:Pricedown;-inkscape-font-specification:Pricedown;fill:#ffaaaa;fill-opacity:0.495833;stroke:#ff0000;stroke-width:0.02"
       x="60.799572"
       y="32.17197"
       id="text8"><tspan
         sodipodi:role="line"
         id="tspan8"
         style="stroke-width:0.02"
         x="60.799572"
         y="32.17197" /></text><path
       id="path17-2-4"
       style="font-size:25.4px;font-family:Pricedown;-inkscape-font-specification:Pricedown;fill:#ff00ff;fill-opacity:1;stroke:none;stroke-width:0.0205239"
       d="m 133.19465,139.05338 0.003,10.79589 h -0.0132 l -0.0164,21.8426 h 17.0386 v -4.1443 h -12.934 v -17.6983 h -0.003 v -5.94044 l 4.95938,0.0117 v -4.8581 z m 10.35255,0.0101 v 4.86022 l 1.38833,0.003 v -4.86179 z m 2.7072,0.003 v 4.86394 l 14.85293,-0.0212 -0.0233,-4.85264 z"
       sodipodi:nodetypes="ccccccccccccccccccccccc" /><path
       style="font-size:25.4px;font-family:Pricedown;-inkscape-font-specification:Pricedown;fill:#ff00ff;fill-opacity:1;stroke:none;stroke-width:0.019538"
       d="m 151.6373,171.69169 v -4.1444 h 26.61754 V 155.8222 h 4.91323 v 15.86949 z"
       id="path17-1-7-3"
       sodipodi:nodetypes="ccccccc" /><path
       d="m 144.90009,162.42435 c -2e-5,0.0261 -0.0261,0.0514 -0.0521,0.0521 -0.43296,0.0116 -0.6467,0.0107 -1.20942,0.003 -0.0261,-3.6e-4 -0.0561,-0.0316 -0.0561,-0.0577 V 148.9713 c 0,-0.0261 0.0261,-0.0521 0.0521,-0.0521 h 1.22508 c 0.0261,0 0.0521,0.0261 0.0521,0.0521 z m 3.00224,4.17709 c 1.79852,0 2.40589,-0.58444 2.40771,-1.9659 l 0.0233,-17.77573 c 0.002,-1.40754 -0.91229,-2.1113 -2.7108,-2.1113 h -6.75094 c -1.79851,0 -2.7108,0.70376 -2.7108,2.1113 v 17.70578 c 0,1.38147 1.09881,2.03585 2.89732,2.03585 z m 22.6317,-0.0103 v -4.1444 h -13.47581 v -17.69836 h -5.42161 v 21.8428 z m -5.4216,-9.38354 c 0,0.0261 -0.0261,0.0521 -0.0521,0.0521 h -1.22508 c -0.0261,0 -0.0521,-0.0261 -0.0521,-0.0521 v -8.23667 c 0,-0.0261 0.0261,-0.0521 0.0521,-0.0521 h 1.22508 c 0.0261,0 0.0521,0.0261 0.0521,0.0521 z m 2.7108,4.19653 c 1.79851,0 2.7108,-0.6777 2.7108,-2.05917 v -12.48529 c 0,-1.40753 -0.91229,-2.11129 -2.7108,-2.11129 h -6.75094 c -1.79851,0 -2.7108,0.70376 -2.7108,2.11129 V 159.345 c 0,1.38147 0.91229,2.05917 2.7108,2.05917 z m 9.31069,5.20975 0.17092,-11.91704 h 5.77783 v -4.17046 h -5.77783 l -0.072,-1.55545 c -0.001,-0.0261 0.0261,-0.0521 0.0521,-0.0521 h 5.77783 v -4.17046 h -8.54076 c -1.79851,0 -2.7108,0.72983 -2.7108,2.11129 v 19.75425 z"
       id="text1-2-8-8-9"
       style="font-size:25.4px;font-family:Pricedown;-inkscape-font-specification:Pricedown;fill:#ff00ff;fill-opacity:1;stroke:none;stroke-width:0.0205239"
       aria-label="OLOF"
       sodipodi:nodetypes="sssssssssssssssssscccccccsssssssssssssssssscccccssccsscc" /><path
       id="path17-7-6-2-6"
       style="font-size:25.4px;font-family:Pricedown;-inkscape-font-specification:Pricedown;fill:#ff00ff;fill-opacity:1;stroke:none;stroke-width:0.0217864"
       d="m 162.49649,139.04066 v 4.9159 l 0.69099,-0.001 0.63583,-0.003 v -4.91189 z m 2.64568,0 v 4.90635 l 1.32151,-0.005 v -4.90105 z m 2.64037,0 v 4.89575 l 15.29816,-0.0636 -0.035,-4.83212 z"
       sodipodi:nodetypes="cccccccccccccccc" /></g></svg>
