<?xml version="1.0" encoding="UTF-8" standalone="no"?>
<!-- Created with Inkscape (http://www.inkscape.org/) -->

<svg
   width="55.312519mm"
   height="32.505035mm"
   viewBox="0 0 55.312519 32.505035"
   version="1.1"
   id="svg1"
   inkscape:version="1.3.2 (091e20e, 2023-11-25, custom)"
   sodipodi:docname="LogoIcelandic_moreSpace.svg"
   xml:space="preserve"
   inkscape:export-filename="LogoIcelandic_moreSpace.png"
   inkscape:export-xdpi="96"
   inkscape:export-ydpi="96"
   xmlns:inkscape="http://www.inkscape.org/namespaces/inkscape"
   xmlns:sodipodi="http://sodipodi.sourceforge.net/DTD/sodipodi-0.dtd"
   xmlns="http://www.w3.org/2000/svg"
   xmlns:svg="http://www.w3.org/2000/svg"><sodipodi:namedview
     id="namedview1"
     pagecolor="#ffffff"
     bordercolor="#000000"
     borderopacity="0.25"
     inkscape:showpageshadow="2"
     inkscape:pageopacity="0.0"
     inkscape:pagecheckerboard="0"
     inkscape:deskcolor="#d1d1d1"
     inkscape:document-units="mm"
     inkscape:zoom="2.0586053"
     inkscape:cx="257.94163"
     inkscape:cy="88.652254"
     inkscape:window-width="1920"
     inkscape:window-height="1094"
     inkscape:window-x="-11"
     inkscape:window-y="-11"
     inkscape:window-maximized="1"
     inkscape:current-layer="layer1"
     showguides="true"
     showgrid="false"><sodipodi:guide
       position="-11.714087,36.664063"
       orientation="0,-1"
       id="guide1"
       inkscape:locked="false" /><sodipodi:guide
       position="-8.0781874,4.1836957"
       orientation="0,-1"
       id="guide2"
       inkscape:locked="false" /><sodipodi:guide
       position="55.311976,47.074631"
       orientation="1,0"
       id="guide3"
       inkscape:locked="false" /></sodipodi:namedview><defs
     id="defs1"><inkscape:path-effect
       effect="offset"
       id="path-effect16"
       is_visible="true"
       lpeversion="1.2"
       linejoin_type="miter"
       unit="mm"
       offset="0.5"
       miter_limit="4"
       attempt_force_join="false"
       update_on_knot_move="true" /><inkscape:path-effect
       effect="offset"
       id="path-effect14"
       is_visible="true"
       lpeversion="1.2"
       linejoin_type="miter"
       unit="mm"
       offset="0.5"
       miter_limit="4"
       attempt_force_join="false"
       update_on_knot_move="true" /><inkscape:path-effect
       effect="offset"
       id="path-effect13"
       is_visible="true"
       lpeversion="1.2"
       linejoin_type="miter"
       unit="mm"
       offset="0.5"
       miter_limit="4"
       attempt_force_join="false"
       update_on_knot_move="true" /><inkscape:path-effect
       effect="offset"
       id="path-effect11"
       is_visible="true"
       lpeversion="1.2"
       linejoin_type="miter"
       unit="mm"
       offset="0"
       miter_limit="4"
       attempt_force_join="false"
       update_on_knot_move="true" /><inkscape:path-effect
       effect="offset"
       id="path-effect10"
       is_visible="true"
       lpeversion="1.2"
       linejoin_type="miter"
       unit="mm"
       offset="0.6"
       miter_limit="4"
       attempt_force_join="false"
       update_on_knot_move="true" /><inkscape:path-effect
       effect="offset"
       id="path-effect8"
       is_visible="true"
       lpeversion="1.2"
       linejoin_type="miter"
       unit="mm"
       offset="0"
       miter_limit="4"
       attempt_force_join="false"
       update_on_knot_move="true" /><inkscape:path-effect
       effect="perspective-envelope"
       up_left_point="119.65726,24.933952"
       up_right_point="129.28709,27.640005"
       down_left_point="119.65726,39.071762"
       down_right_point="129.28709,36.365709"
       id="path-effect7"
       is_visible="true"
       lpeversion="1"
       deform_type="perspective"
       horizontal_mirror="true"
       vertical_mirror="false"
       overflow_perspective="false" /><inkscape:path-effect
       effect="perspective-envelope"
       up_left_point="119.65726,24.933952"
       up_right_point="129.28709,27.640005"
       down_left_point="119.65726,39.071762"
       down_right_point="129.28709,36.365709"
       id="path-effect7-8"
       is_visible="true"
       lpeversion="1"
       deform_type="perspective"
       horizontal_mirror="true"
       vertical_mirror="false"
       overflow_perspective="false" /><inkscape:path-effect
       effect="offset"
       id="path-effect8-1"
       is_visible="true"
       lpeversion="1.2"
       linejoin_type="miter"
       unit="mm"
       offset="0"
       miter_limit="4"
       attempt_force_join="false"
       update_on_knot_move="true" /></defs><g
     inkscape:label="Layer 1"
     inkscape:groupmode="layer"
     id="layer1"
     transform="translate(-135.67104,-81.085293)"><text
       xml:space="preserve"
       style="font-style:normal;font-variant:normal;font-weight:normal;font-stretch:normal;font-size:25.4px;font-family:Pricedown;-inkscape-font-specification:Pricedown;fill:#ffaaaa;fill-opacity:0.495833;stroke:#ff0000;stroke-width:0.02"
       x="60.799572"
       y="32.17197"
       id="text8"><tspan
         sodipodi:role="line"
         id="tspan8"
         style="stroke-width:0.02"
         x="60.799572"
         y="32.17197" /></text><path
       id="path17-2"
       style="font-size:25.4px;font-family:Pricedown;-inkscape-font-specification:Pricedown;fill:#000000;fill-opacity:1;stroke:none;stroke-width:0.0205239"
       d="m 135.72724,81.162283 -0.0482,9.824567 -0.008,-0.0057 0.0745,22.60918 18.50267,-0.0643 v -3.85255 h -14.5215 V 90.916907 h -0.003 v -5.940445 l 6.01771,0.01167 -4e-5,-3.881094 z m 11.86206,-0.0542 4e-5,3.883216 1.38833,0.0032 -4e-5,-3.884786 z m 3.23637,0.0027 4e-5,3.886928 15.91126,-0.02118 -0.0233,-3.875632 z"
       sodipodi:nodetypes="ccccccccccccccccccccccc" /><path
       style="font-size:25.4px;font-family:Pricedown;-inkscape-font-specification:Pricedown;fill:#000000;fill-opacity:1;stroke:none;stroke-width:0.019538"
       d="m 156.81034,113.5586 v -3.87537 l 30.16267,-0.0227 V 97.935415 h 4.00347 l -0.0321,15.577745 z"
       id="path17-1-7"
       sodipodi:nodetypes="ccccccc" /><path
       d="m 148.94219,104.02116 c -2e-5,0.0261 -0.0261,0.0514 -0.0521,0.0521 -0.43296,0.0116 -0.6467,0.0107 -1.20942,0.003 -0.0261,-3.6e-4 -0.0561,-0.0316 -0.0561,-0.0577 V 90.568103 c 0,-0.02607 0.0261,-0.05213 0.0521,-0.05213 h 1.22508 c 0.0261,0 0.0521,0.02607 0.0521,0.05213 z m 3.00224,4.17709 c 1.79852,0 2.40589,-0.58444 2.40771,-1.9659 l 0.0233,-17.77574 c 0.002,-1.407532 -0.91229,-2.111298 -2.7108,-2.111298 h -6.75094 c -1.79851,0 -2.7108,0.703766 -2.7108,2.111298 v 17.70579 c 0,1.38147 1.09881,2.03585 2.89732,2.03585 z m 23.69003,-0.0103 v -4.1444 H 162.15865 V 86.345179 h -5.42161 v 21.842811 z m -4.36326,-9.912713 c 0,0.02607 -0.0261,0.05213 -0.0521,0.05213 h -1.22508 c -0.0261,0 -0.0521,-0.02607 -0.0521,-0.05213 v -7.707502 c 0,-0.02607 0.0261,-0.05213 0.0521,-0.05213 h 1.22508 c 0.0261,0 0.0521,0.02607 0.0521,0.05213 z m 2.7108,4.196533 c 1.79851,-1e-5 2.7108,-0.6777 2.7108,-2.05917 V 88.456477 c 0,-1.407532 -0.91229,-2.111298 -2.7108,-2.111298 h -6.75094 c -1.79851,0 -2.7108,0.703766 -2.7108,2.111298 v 11.956163 c 0,1.38147 0.91229,2.05918 2.7108,2.05917 z m 10.36902,5.73892 0.17092,-11.917042 6.4405,-0.06426 V 92.05892 l -6.4405,0.06426 -0.072,-1.555448 c -0.001,-0.02606 0.0261,-0.05213 0.0521,-0.05213 h 6.48152 l -0.0454,-4.147745 -9.19901,-0.02272 c -1.79851,-0.0044 -2.7108,0.729831 -2.7108,2.111298 v 19.754255 z"
       id="text1-2-8-8"
       style="font-size:25.4px;font-family:Pricedown;-inkscape-font-specification:Pricedown;fill:#000000;fill-opacity:1;stroke:none;stroke-width:0.0205239"
       aria-label="OLOF"
       sodipodi:nodetypes="sssssssssssssssssscccccccsssssssssssssssssscccccssccsscc" /><path
       id="path17-7-6-2"
       style="font-size:25.4px;font-family:Pricedown;-inkscape-font-specification:Pricedown;fill:#000000;fill-opacity:1;stroke:none;stroke-width:0.0217864"
       d="m 168.65526,81.085293 4e-5,3.938897 0.69099,-0.001 0.63583,-0.0027 -4e-5,-3.935185 z m 2.64568,0 4e-5,3.929351 1.32151,-0.0053 -4e-5,-3.924048 z m 3.16954,0 4e-5,3.918745 16.43271,0.02725 0.0332,-3.94599 z"
       sodipodi:nodetypes="cccccccccccccccc" /><rect
       style="fill:#008080;fill-opacity:0.495833;stroke:#ff0000;stroke-width:0.0171388"
       id="rect3"
       width="1.5098065"
       height="14.39772"
       x="78.17115"
       y="-113.31721"
       transform="rotate(90)" /><text
       xml:space="preserve"
       style="font-style:normal;font-variant:normal;font-weight:normal;font-stretch:normal;font-size:25.4px;font-family:Pricedown;-inkscape-font-specification:Pricedown;fill:#008080;fill-opacity:0.495833;stroke:#ff0000;stroke-width:0.02"
       x="84.242485"
       y="70.202225"
       id="text3"><tspan
         sodipodi:role="line"
         id="tspan3"
         style="stroke-width:0.02"
         x="84.242485"
         y="70.202225">olof</tspan></text></g></svg>
