<?xml version="1.0" encoding="UTF-8" standalone="no"?>
<!-- Created with Inkscape (http://www.inkscape.org/) -->

<svg
   width="12.251005mm"
   height="7.9999681mm"
   viewBox="0 0 12.251005 7.9999681"
   version="1.1"
   id="svg1"
   inkscape:version="1.3.2 (091e20e, 2023-11-25, custom)"
   sodipodi:docname="Logo_OLOF.svg"
   xmlns:inkscape="http://www.inkscape.org/namespaces/inkscape"
   xmlns:sodipodi="http://sodipodi.sourceforge.net/DTD/sodipodi-0.dtd"
   xmlns="http://www.w3.org/2000/svg"
   xmlns:svg="http://www.w3.org/2000/svg">
  <sodipodi:namedview
     id="namedview1"
     pagecolor="#ffffff"
     bordercolor="#000000"
     borderopacity="0.25"
     inkscape:showpageshadow="2"
     inkscape:pageopacity="0.0"
     inkscape:pagecheckerboard="0"
     inkscape:deskcolor="#d1d1d1"
     inkscape:document-units="mm"
     inkscape:zoom="0.72782688"
     inkscape:cx="359.97571"
     inkscape:cy="425.23849"
     inkscape:window-width="1920"
     inkscape:window-height="1094"
     inkscape:window-x="-11"
     inkscape:window-y="-11"
     inkscape:window-maximized="1"
     inkscape:current-layer="layer1" />
  <defs
     id="defs1" />
  <g
     inkscape:label="Layer 1"
     inkscape:groupmode="layer"
     id="layer1"
     transform="translate(-9.7900552,-35.983365)">
    <path
       id="path17"
       style="font-size:25.4px;font-family:Pricedown;-inkscape-font-specification:Pricedown;fill:#000000;fill-opacity:1;stroke:none;stroke-width:0.00502871"
       d="m 9.7966909,35.986342 7.543e-4,2.645174 h -0.00337 l -0.00402,5.351805 h 4.1747438 v -1.015425 h -3.168922 v -4.33638 h -7.54e-4 v -1.455508 l 4.850524,0.01143 v -1.195382 z" />
    <path
       style="font-size:25.4px;font-family:Pricedown;-inkscape-font-specification:Pricedown;fill:#000000;fill-opacity:1;stroke:none;stroke-width:0.00478713"
       d="m 14.315494,43.983333 v -1.015447 h 6.521743 v -2.872843 h 1.203823 v 3.88829 z"
       id="path17-1"
       sodipodi:nodetypes="ccccccc" />
    <path
       d="m 12.664765,41.71268 c -5e-6,0.0064 -0.0064,0.0126 -0.01277,0.01277 -0.106083,0.0028 -0.158452,0.0026 -0.296327,7.54e-4 -0.0064,-8.8e-5 -0.01375,-0.0077 -0.01375,-0.01413 v -3.29562 c 0,-0.0064 0.0064,-0.01277 0.01277,-0.01277 h 0.300163 c 0.0064,0 0.01277,0.0064 0.01277,0.01277 z m 0.735599,1.023458 c 0.440666,0 0.589483,-0.143198 0.589928,-0.48168 l 0.0057,-4.355352 c 5.03e-4,-0.344869 -0.223526,-0.517304 -0.664192,-0.517304 h -1.654093 c -0.440666,0 -0.664192,0.172435 -0.664192,0.517304 v 4.338214 c 0,0.338483 0.269227,0.498818 0.709893,0.498818 z m 5.545146,-0.0025 V 41.718176 H 15.643709 V 37.38177 h -1.328383 v 5.351854 z m -1.328384,-2.299126 c 0,0.0064 -0.0064,0.01277 -0.01277,0.01277 h -0.300164 c -0.0064,0 -0.01277,-0.0064 -0.01277,-0.01277 V 38.41639 c 0,-0.0064 0.0064,-0.01277 0.01277,-0.01277 h 0.300164 c 0.0064,0 0.01277,0.0064 0.01277,0.01277 z m 0.664192,1.02822 c 0.440665,0 0.664192,-0.166048 0.664192,-0.50453 v -3.059115 c 0,-0.344869 -0.223527,-0.517303 -0.664192,-0.517303 h -1.654094 c -0.440665,0 -0.664192,0.172434 -0.664192,0.517303 v 3.059115 c 0,0.338482 0.223527,0.50453 0.664192,0.50453 z m 2.281274,1.276477 0.04188,-2.919874 h 1.415664 v -1.021834 h -1.415664 l -0.01765,-0.381111 c -2.52e-4,-0.0064 0.0064,-0.01277 0.01277,-0.01277 h 1.415664 v -1.02185 h -2.092629 c -0.440666,0 -0.664192,0.17882 -0.664192,0.517303 v 4.840122 z"
       id="text1-2-8"
       style="font-size:25.4px;font-family:Pricedown;-inkscape-font-specification:Pricedown;fill:#000000;fill-opacity:1;stroke:none;stroke-width:0.00502871"
       aria-label="OLOF"
       sodipodi:nodetypes="sssssssssssssssssscccccccsssssssssssssssssscccccssccsscc" />
    <path
       style="font-size:25.4px;font-family:Pricedown;-inkscape-font-specification:Pricedown;fill:#000000;fill-opacity:1;stroke:none;stroke-width:0.00533803"
       d="m 15.989209,37.188972 1.156329,-0.0015 4.87416,-0.0202 -0.0086,-1.183907 h -6.030489 z"
       id="path17-7-6"
       sodipodi:nodetypes="cccccc" />
  </g>
</svg>
